<?xml version="1.0" standalone="no"?><!DOCTYPE svg PUBLIC "-//W3C//DTD SVG 1.1//EN" "http://www.w3.org/Graphics/SVG/1.1/DTD/svg11.dtd"><svg class="icon" width="200px" height="200.00px" viewBox="0 0 1024 1024" version="1.1" xmlns="http://www.w3.org/2000/svg"><path fill="#dbdbdb" d="M872 160h-720A119.84 119.84 0 0 0 32 279.36v464A119.84 119.84 0 0 0 152 864h720a120 120 0 0 0 120-120.48v-464A120 120 0 0 0 872 160zM928 743.52A56 56 0 0 1 872 800h-720A56 56 0 0 1 96 743.52v-464A56 56 0 0 1 152 224h720a56 56 0 0 1 56 55.36z"  /><path fill="#dbdbdb" d="M832 375.52L512 582.24 192 375.52a32 32 0 1 0-34.56 53.92l337.28 217.76a31.04 31.04 0 0 0 17.28 5.12 30.72 30.72 0 0 0 17.28-5.12l338.08-217.76A32 32 0 0 0 832 375.52z"  /></svg>