<?xml version="1.0" standalone="no"?><!DOCTYPE svg PUBLIC "-//W3C//DTD SVG 1.1//EN" "http://www.w3.org/Graphics/SVG/1.1/DTD/svg11.dtd"><svg class="icon" width="200px" height="200.00px" viewBox="0 0 1024 1024" version="1.1" xmlns="http://www.w3.org/2000/svg"><path fill="#dbdbdb" d="M506.88 642.88c81.6 0 157.6-42.24 229.44-130.88-72-88.64-147.84-130.88-229.44-130.88S349.28 423.36 277.28 512c72 88.64 148 130.88 229.6 130.88z m0 62.4q-158.08 0-288-160a51.36 51.36 0 0 1 0-64.8q130.72-161.12 288-160.96t288 160a51.52 51.52 0 0 1 0 64.96q-130.24 160.64-288 160.8z"  /><path fill="#dbdbdb" d="M506.88 540A28 28 0 1 0 478.88 512a28 28 0 0 0 28 28z m0 71.84A99.84 99.84 0 1 1 606.88 512a100 100 0 0 1-100 99.84zM130.88 888v-143.04a36 36 0 0 0-72 0v155.04A60 60 0 0 0 118.88 960h154.88a36 36 0 0 0 0-72z m0-752h142.88a36 36 0 0 0 0-72H118.88a60 60 0 0 0-60 60v155.04a36 36 0 0 0 72 0z m752 0v143.04a36 36 0 1 0 72 0V124A60.16 60.16 0 0 0 894.88 64h-155.04a36 36 0 0 0 0 72z m0 752h-143.04a36 36 0 0 0 0 72h155.04a60.16 60.16 0 0 0 60-60v-155.04a36 36 0 0 0-72 0z"  /></svg>