<?xml version="1.0" standalone="no"?><!DOCTYPE svg PUBLIC "-//W3C//DTD SVG 1.1//EN" "http://www.w3.org/Graphics/SVG/1.1/DTD/svg11.dtd"><svg class="icon" width="200px" height="200.00px" viewBox="0 0 1024 1024" version="1.1" xmlns="http://www.w3.org/2000/svg"><path fill="#dbdbdb" d="M498.56 992A480 480 0 1 1 940.8 324.96a480 480 0 0 1-102.72 526.4A480 480 0 0 1 498.56 992z m0-883.36a403.36 403.36 0 0 0-285.12 688A403.2 403.2 0 1 0 784 226.88a400.8 400.8 0 0 0-285.44-118.24z"  /><path fill="#dbdbdb" d="M498.56 550.4a38.24 38.24 0 0 1-27.04-11.2 39.36 39.36 0 0 1-11.2-27.2V224a38.4 38.4 0 1 1 76.64 0v249.6l243.84-0.96a38.4 38.4 0 0 1 0 76.8l-282.24 0.96z"  /></svg>