<?xml version="1.0" standalone="no"?><!DOCTYPE svg PUBLIC "-//W3C//DTD SVG 1.1//EN" "http://www.w3.org/Graphics/SVG/1.1/DTD/svg11.dtd"><svg class="icon" width="200px" height="200.00px" viewBox="0 0 1024 1024" version="1.1" xmlns="http://www.w3.org/2000/svg"><path fill="#dbdbdb" d="M982.56 426.4l-405.6-320a104.16 104.16 0 0 0-124.64 0l-405.44 320a32 32 0 0 0 39.2 50.24l12.64-10.4v387.68c0 54.88 57.76 96 108.8 96H848c50.24 0 83.2-38.72 83.2-96V467.68l11.68 8.96a32 32 0 0 0 20 6.88 32 32 0 0 0 20.16-57.12zM482.72 885.92V708.48c0-8.96 16-13.28 32-13.28s32 4.32 32 13.28v177.44z m384-32c0 21.12-5.92 32-19.2 32H611.36V708.48c0-37.28-30.08-77.28-96-77.28s-96 40-96 77.28v177.44H208c-20.16 0-44.8-17.44-44.8-32V416L491.68 156a39.84 39.84 0 0 1 44.96 0l330.08 261.12v436.8z"  /></svg>