<?xml version="1.0" standalone="no"?><!DOCTYPE svg PUBLIC "-//W3C//DTD SVG 1.1//EN" "http://www.w3.org/Graphics/SVG/1.1/DTD/svg11.dtd"><svg class="icon" width="200px" height="200.00px" viewBox="0 0 1024 1024" version="1.1" xmlns="http://www.w3.org/2000/svg"><path fill="#dbdbdb" d="M521.76 992a479.04 479.04 0 0 1-339.36-140.48A481.12 481.12 0 0 1 80 698.88a480 480 0 0 1 102.72-526.24 481.12 481.12 0 0 1 152.64-102.88 480 480 0 0 1 526.24 102.72 481.12 481.12 0 0 1 102.88 152.64 480 480 0 0 1-102.72 526.24 481.12 481.12 0 0 1-152.64 102.88A475.68 475.68 0 0 1 521.76 992z m0-883.2a401.92 401.92 0 1 0 156.96 32 402.24 402.24 0 0 0-156.96-32z"  /><path fill="#dbdbdb" d="M448 693.6a38.56 38.56 0 0 1-27.04-11.04l-147.2-145.28a38.4 38.4 0 0 1 54.08-54.72L448 600.8 710.08 337.6a38.4 38.4 0 1 1 54.4 54.24L475.36 682.24a38.24 38.24 0 0 1-27.36 11.36z"  /></svg>