<?xml version="1.0" standalone="no"?><!DOCTYPE svg PUBLIC "-//W3C//DTD SVG 1.1//EN" "http://www.w3.org/Graphics/SVG/1.1/DTD/svg11.dtd"><svg class="icon" width="200px" height="200.00px" viewBox="0 0 1024 1024" version="1.1" xmlns="http://www.w3.org/2000/svg"><path fill="#dbdbdb" d="M987.2 594.24a39.84 39.84 0 0 1 7.36 52.32l-3.04 4L752 930.56a40 40 0 0 1-54.4 6.08l-160-120a40 40 0 0 1 43.84-66.88l4.16 2.88 130.08 97.44 215.04-251.52a40 40 0 0 1 56.48-4.32zM481.12 544a40 40 0 0 1 0 80h-200a40 40 0 0 1 0-80z m200-200a40 40 0 0 1 0 80h-400a40 40 0 0 1 0-80zM514.88 998.24H119.52a50.24 50.24 0 0 1-50.4-50.24V88.64a50.4 50.4 0 0 1 50.4-50.4h790.72A50.4 50.4 0 0 1 960 88.64v395.36a34.24 34.24 0 0 1-34.4 34.24 34.24 34.24 0 0 1-34.24-34.24V136.96a30.08 30.08 0 0 0-29.92-30.08H167.68a30.08 30.08 0 0 0-29.92 30.08v762.72a30.08 30.08 0 0 0 29.92 30.08h347.2a34.24 34.24 0 0 1 34.24 34.24 34.24 34.24 0 0 1-34.24 34.24z"  /></svg>