<?xml version="1.0" standalone="no"?><!DOCTYPE svg PUBLIC "-//W3C//DTD SVG 1.1//EN" "http://www.w3.org/Graphics/SVG/1.1/DTD/svg11.dtd"><svg class="icon" width="200px" height="200.00px" viewBox="0 0 1024 1024" version="1.1" xmlns="http://www.w3.org/2000/svg"><path fill="#dbdbdb" d="M840.48 101.44h-128a64 64 0 0 0-64-64h-256a64 64 0 0 0-64 64h-128a128 128 0 0 0-128 128v640a128 128 0 0 0 128 128h640a128 128 0 0 0 128-128v-640a128 128 0 0 0-128-128z m-416 0h192a32 32 0 0 1 0 64h-192a32 32 0 0 1 0-64z m480 768a64 64 0 0 1-64 64h-640a64 64 0 0 1-64-64v-640a64 64 0 0 1 64-64h128a64 64 0 0 0 64 64h256a64 64 0 0 0 64-64h128a64 64 0 0 1 64 64v640zM722.72 429.12L476.64 666.24 320 515.36a32 32 0 0 0-44.8 0 29.76 29.76 0 0 0-1.12 41.92l1.12 1.28 179.2 172.32a32 32 0 0 0 44.64 0L768 472.32a29.92 29.92 0 0 0 0-43.2 32 32 0 0 0-45.28 0z"  /></svg>