<?xml version="1.0" standalone="no"?><!DOCTYPE svg PUBLIC "-//W3C//DTD SVG 1.1//EN" "http://www.w3.org/Graphics/SVG/1.1/DTD/svg11.dtd"><svg class="icon" width="200px" height="200.00px" viewBox="0 0 1024 1024" version="1.1" xmlns="http://www.w3.org/2000/svg"><path fill="#dbdbdb" d="M608 684.16h-0.8L423.36 512l183.68-171.2a45.92 45.92 0 0 0 3.2-64v-0.8a45.76 45.76 0 0 0-64-3.2l-2.24 0.8-219.2 204a45.92 45.92 0 0 0-0.8 66.4h0.8l220.16 206.4a45.76 45.76 0 0 0 64-66.24zM518.56 992a480 480 0 0 1-480-480A480 480 0 0 1 960 325.12 480 480 0 0 1 518.56 992z m0-883.2a402.88 402.88 0 1 0 371.52 246.24 407.04 407.04 0 0 0-86.4-128A401.92 401.92 0 0 0 518.56 108.8z"  /></svg>