<?xml version="1.0" standalone="no"?><!DOCTYPE svg PUBLIC "-//W3C//DTD SVG 1.1//EN" "http://www.w3.org/Graphics/SVG/1.1/DTD/svg11.dtd"><svg class="icon" width="200px" height="200.00px" viewBox="0 0 1024 1024" version="1.1" xmlns="http://www.w3.org/2000/svg"><path fill="#dbdbdb" d="M881.92 788.32l-70.72-124.8V403.04a280.16 280.16 0 0 0-55.68-161.28 317.92 317.92 0 0 0-144-112h-0.96l-13.12-4v-8.48a85.28 85.28 0 1 0-170.56 0v8.16c-3.84 0.96-7.52 2.08-11.2 3.36a318.08 318.08 0 0 0-146.56 112 280.32 280.32 0 0 0-56.64 162.72v260l-76.8 133.44a51.68 51.68 0 0 0 44.96 77.44h150.24C352 941.92 424.8 992 512 992s160-50.08 181.12-117.6h150.24a51.68 51.68 0 0 0 51.68-51.68 49.92 49.92 0 0 0-13.12-34.4zM512 80a34.72 34.72 0 0 1 33.92 33.28c-3.84 0-28.48-2.4-34.56-2.4S481.44 112 478.08 112A34.88 34.88 0 0 1 512 80z m0 849.12a130.72 130.72 0 0 1-112-54.4h224a130.72 130.72 0 0 1-112 54.08z m291.36-121.6H220.48a7.36 7.36 0 0 1-6.24-3.52 7.52 7.52 0 0 1 0-7.36l61.76-115.84a24.16 24.16 0 0 0 2.88-11.04V403.04c0-96 74.56-173.28 173.44-209.28a224 224 0 0 1 59.68-10.08 253.44 253.44 0 0 1 61.44 11.36c97.12 36.8 170.4 113.12 170.4 208v266.4a22.24 22.24 0 0 0 2.88 11.04l58.4 109.12a37.76 37.76 0 0 0 3.2 5.12 8.96 8.96 0 0 1 2.08 5.12 7.04 7.04 0 0 1-7.04 7.36z"  /></svg>