<?xml version="1.0" standalone="no"?><!DOCTYPE svg PUBLIC "-//W3C//DTD SVG 1.1//EN" "http://www.w3.org/Graphics/SVG/1.1/DTD/svg11.dtd"><svg class="icon" width="200px" height="200.00px" viewBox="0 0 1024 1024" version="1.1" xmlns="http://www.w3.org/2000/svg"><path fill="#dbdbdb" d="M512 23.04a257.6 257.6 0 0 1 257.6 257.6V384H864a68.64 68.64 0 0 1 68.64 68.64v461.76A68.64 68.64 0 0 1 864 983.04H160a68.64 68.64 0 0 1-68.64-68.64V452.64A68.64 68.64 0 0 1 160 384h93.12v-103.36A257.6 257.6 0 0 1 512 23.04z m342.88 438.08H169.12v444.8h685.76V461.28z m-258.72 76.16l8 5.12a34.4 34.4 0 0 1 28.32-16 34.24 34.24 0 0 1 34.88 33.6v64a34.24 34.24 0 0 1-33.76 34.24h-64.8a34.24 34.24 0 0 1-13.12-65.92l6.08 3.36a99.68 99.68 0 1 0 35.68 137.44v-1.44A34.24 34.24 0 0 1 657.6 768a168.16 168.16 0 1 1-61.44-229.92zM512 100.16a180.64 180.64 0 0 0-180.96 180.48V384h360.96v-103.36A180.48 180.48 0 0 0 512 100.16z"  /></svg>